<svg width="500" height="500" viewBox="0 0 500 500" fill="none" xmlns="http://www.w3.org/2000/svg">
<g opacity="0.1">
<path d="M279.224 253.554L252.574 280.22V289.997C260.039 289.356 266.992 285.936 272.059 280.412C277.125 274.889 279.936 267.664 279.935 260.167C279.919 257.944 279.681 255.729 279.224 253.554Z" fill="#1ED760"/>
<path d="M271.508 234.835L252.497 253.857V273.109L277.638 247.937C276.034 243.377 273.981 238.988 271.508 234.835Z" fill="#1ED760"/>
<path d="M222.264 247.957L247.404 273.112V254.215L228.269 235.086C225.849 239.168 223.837 243.479 222.264 247.957Z" fill="#1ED760"/>
<path d="M247.333 247.012V210C241.285 216.383 235.799 223.277 230.934 230.604L247.333 247.012Z" fill="#1ED760"/>
<path d="M252.497 210V246.639L268.754 230.444C263.925 223.18 258.486 216.341 252.497 210Z" fill="#1ED760"/>
<path d="M220 260.17C219.999 267.667 222.81 274.891 227.876 280.415C232.943 285.938 239.896 289.359 247.361 290V280.329L220.711 253.663C220.26 255.803 220.021 257.983 220 260.17Z" fill="#1ED760"/>
<path fill-rule="evenodd" clip-rule="evenodd" d="M452.719 295.64L459.964 289.115L466.747 282.113L473.036 274.664L478.805 266.804L484.025 258.57L488.672 250L484.025 241.43L478.805 233.196L473.036 225.336L466.747 217.888L459.964 210.885L452.719 204.36L448.469 212.758L443.713 220.878L438.466 228.691L432.75 236.168L426.585 243.28L419.997 250L426.585 256.72L432.75 263.832L438.466 271.309L443.713 279.122L448.469 287.242L452.719 295.64ZM402.741 390.885L412.276 388.856L421.651 386.183L430.823 382.878L439.749 378.956L448.386 374.435L456.696 369.336L456.957 359.59L456.553 349.849L455.487 340.159L453.764 330.563L451.392 321.107L448.38 311.835L440.501 316.982L432.321 321.636L423.87 325.779L415.182 329.396L406.288 332.473L397.222 334.998L399.567 344.113L401.35 353.354L402.562 362.687L403.199 372.076L403.258 381.488L402.741 390.885ZM397.222 165.002L406.288 167.527L415.182 170.604L423.87 174.221L432.321 178.364L440.501 183.019L448.38 188.165L451.392 178.893L453.764 169.437L455.487 159.841L456.553 150.15L456.957 140.409L456.696 130.664L448.386 125.565L439.749 121.045L430.823 117.123L421.651 113.817L412.276 111.144L402.74 109.115L403.258 118.512L403.199 127.924L402.562 137.313L401.35 146.646L399.567 155.887L397.222 165.002ZM369.803 282.101L375.75 290.066L381.168 298.399L386.035 307.067L390.33 316.031L394.035 325.255L403.005 322.791L411.795 319.749L420.369 316.143L428.691 311.987L436.725 307.299L444.438 302.099L440.359 293.74L435.744 285.663L430.615 277.903L424.993 270.493L418.901 263.463L412.366 256.845L404.544 262.98L396.343 268.596L387.794 273.669L378.936 278.177L369.803 282.101ZM369.803 217.899L378.936 221.823L387.794 226.331L396.343 231.404L404.544 237.02L412.366 243.155L418.901 236.537L424.993 229.507L430.616 222.097L435.744 214.337L440.359 206.26L444.438 197.9L436.726 192.701L428.691 188.013L420.369 183.858L411.795 180.251L403.005 177.209L394.035 174.745L390.33 183.969L386.035 192.933L381.168 201.601L375.75 209.934L369.803 217.899ZM337.11 112.81L338.514 122.651L339.276 132.561L339.395 142.5L338.87 152.427L337.702 162.298L347.573 161.13L357.5 160.605L367.439 160.724L377.349 161.486L387.189 162.89L389.541 153.89L391.302 144.757L392.466 135.528L393.028 126.243L392.985 116.941L392.338 107.662L383.059 107.015L373.758 106.972L364.472 107.534L355.244 108.698L346.11 110.459L337.11 112.81ZM392.338 392.338L392.985 383.059L393.028 373.758L392.466 364.472L391.302 355.244L389.541 346.11L387.19 337.11L377.349 338.514L367.439 339.276L357.5 339.395L347.573 338.87L337.702 337.702L338.87 347.573L339.395 357.5L339.276 367.439L338.514 377.349L337.11 387.189L346.11 389.541L355.244 391.302L364.473 392.466L373.758 393.028L383.059 392.985L392.338 392.338ZM334.742 250L342.262 255.321L349.449 261.083L356.277 267.268L362.722 273.85L371.707 270.238L380.428 266.027L388.844 261.234L396.917 255.884L404.608 250L396.917 244.116L388.844 238.766L380.428 233.973L371.707 229.762L362.722 226.15L356.277 232.732L349.449 238.917L342.262 244.679L334.742 250ZM335.695 327.016L345.283 328.381L354.941 329.093L364.625 329.151L374.292 328.554L383.895 327.304L380.176 318.362L375.86 309.693L370.967 301.335L365.521 293.327L359.545 285.706L350.673 288.185L341.668 290.126L332.562 291.524L323.389 292.371L327.241 300.739L330.584 309.323L333.405 318.093L335.695 327.016ZM323.389 207.629L332.562 208.476L341.668 209.874L350.674 211.815L359.546 214.294L365.521 206.673L370.967 198.665L375.86 190.307L380.176 181.637L383.895 172.696L374.292 171.446L364.625 170.849L354.941 170.907L345.283 171.619L335.695 172.984L333.406 181.907L330.584 190.677L327.241 199.261L323.389 207.629ZM334.998 102.778L344.113 100.433L353.354 98.6502L362.687 97.4383L372.076 96.8012L381.488 96.7416L390.885 97.2594L388.856 87.7239L386.183 78.3485L382.878 69.1767L378.956 60.251L374.435 51.614L369.336 43.3041L359.59 43.0435L349.849 43.4472L340.159 44.5127L330.564 46.2357L321.107 48.6085L311.835 51.62L316.981 59.499L321.636 67.6795L325.779 76.1299L329.396 84.8179L332.473 93.7121L334.998 102.778ZM369.336 456.696L374.435 448.386L378.955 439.749L382.877 430.823L386.183 421.651L388.856 412.276L390.885 402.741L381.487 403.258L372.076 403.199L362.686 402.562L353.354 401.35L344.113 399.567L334.998 397.222L332.473 406.288L329.396 415.182L325.778 423.87L321.636 432.321L316.981 440.501L311.835 448.38L321.107 451.392L330.563 453.764L340.158 455.487L349.849 456.553L359.59 456.957L369.336 456.696ZM292.371 176.611L300.739 172.759L309.323 169.415L318.093 166.595L327.016 164.305L328.381 154.717L329.093 145.059L329.151 135.374L328.554 125.708L327.304 116.105L318.362 119.824L309.693 124.14L301.335 129.033L293.327 134.479L285.706 140.455L288.185 149.327L290.126 158.332L291.524 167.438L292.371 176.611ZM327.304 383.895L328.554 374.292L329.151 364.625L329.093 354.941L328.381 345.283L327.016 335.695L318.093 333.405L309.323 330.584L300.739 327.241L292.371 323.389L291.524 332.562L290.126 341.668L288.185 350.674L285.706 359.546L293.327 365.521L301.335 370.967L309.693 375.86L318.362 380.176L327.304 383.895ZM282.101 130.197L290.066 124.25L298.399 118.832L307.067 113.965L316.031 109.67L325.255 105.965L322.791 96.9954L319.749 88.2051L316.143 79.6311L311.987 71.3093L307.299 63.2745L302.099 55.5624L293.74 59.6411L285.663 64.2556L277.903 69.3845L270.493 75.0065L263.463 81.0986L256.845 87.6345L262.98 95.4555L268.596 103.656L273.669 112.205L278.177 121.064L282.101 130.197ZM302.099 444.438L307.3 436.725L311.987 428.691L316.143 420.369L319.749 411.795L322.791 403.005L325.255 394.035L316.031 390.33L307.067 386.035L298.399 381.168L290.066 375.75L282.102 369.803L278.177 378.936L273.669 387.794L268.596 396.343L262.98 404.544L256.845 412.366L263.463 418.901L270.493 424.993L277.904 430.616L285.663 435.744L293.74 440.359L302.099 444.438ZM226.15 137.278L232.732 143.723L238.917 150.551L244.679 157.738L250 165.258L255.321 157.738L261.083 150.551L267.268 143.723L273.85 137.278L270.238 128.292L266.027 119.571L261.234 111.156L255.884 103.083L250 95.3917L244.116 103.083L238.766 111.156L233.973 119.571L229.762 128.292L226.15 137.278ZM250 404.608L255.884 396.917L261.234 388.844L266.027 380.428L270.238 371.707L273.85 362.722L267.268 356.277L261.084 349.449L255.321 342.262L250 334.742L244.679 342.262L238.917 349.449L232.733 356.277L226.15 362.722L229.762 371.707L233.973 380.428L238.766 388.844L244.116 396.917L250 404.608ZM204.36 47.2807L212.758 51.5306L220.878 56.2873L228.691 61.5345L236.168 67.2502L243.28 73.4147L250 80.0034L256.72 73.4147L263.832 67.2502L271.309 61.5345L279.122 56.2873L287.242 51.5306L295.64 47.2807L289.115 40.0362L282.113 33.2533L274.664 26.9636L266.804 21.1951L258.57 15.9751L250 11.3283L241.43 15.9751L233.196 21.1951L225.336 26.9636L217.888 33.2533L210.885 40.0361L204.36 47.2807ZM204.36 452.719L210.885 459.964L217.887 466.747L225.336 473.036L233.196 478.805L241.43 484.025L249.999 488.672L258.57 484.025L266.804 478.805L274.664 473.036L282.112 466.747L289.115 459.964L295.64 452.719L287.242 448.469L279.122 443.713L271.309 438.466L263.832 432.75L256.72 426.585L249.999 419.997L243.28 426.585L236.168 432.75L228.691 438.466L220.878 443.713L212.758 448.469L204.36 452.719ZM217.899 130.197L221.823 121.064L226.331 112.205L231.404 103.656L237.02 95.4555L243.155 87.6345L236.537 81.0986L229.507 75.0065L222.097 69.3845L214.337 64.2556L206.26 59.6411L197.9 55.5624L192.7 63.2745L188.013 71.3093L183.857 79.6311L180.251 88.2051L177.209 96.9954L174.745 105.965L183.969 109.67L192.933 113.965L201.601 118.832L209.934 124.25L217.899 130.197ZM174.745 394.035L177.209 403.005L180.251 411.795L183.857 420.369L188.013 428.691L192.7 436.725L197.9 444.438L206.26 440.359L214.337 435.744L222.097 430.615L229.507 424.993L236.537 418.901L243.155 412.365L237.02 404.544L231.404 396.343L226.331 387.794L221.823 378.936L217.899 369.803L209.934 375.75L201.601 381.168L192.933 386.035L183.969 390.33L174.745 394.035ZM172.984 164.305L181.907 166.595L190.677 169.415L199.261 172.759L207.629 176.611L208.476 167.438L209.874 158.332L211.815 149.327L214.294 140.455L206.673 134.479L198.665 129.033L190.307 124.14L181.637 119.824L172.696 116.105L171.446 125.708L170.849 135.374L170.907 145.059L171.62 154.717L172.984 164.305ZM172.696 383.895L181.637 380.176L190.307 375.86L198.665 370.967L206.673 365.521L214.294 359.545L211.815 350.673L209.874 341.668L208.476 332.562L207.629 323.389L199.261 327.241L190.677 330.584L181.907 333.405L172.984 335.695L171.62 345.283L170.907 354.941L170.849 364.625L171.446 374.292L172.696 383.895ZM148.104 222.697L154.853 229.111L162.004 235.073L169.528 240.556L177.392 245.539L185.563 250L177.392 254.461L169.528 259.444L162.004 264.927L154.853 270.889L148.104 277.303L157.156 279.483L166.33 281.07L175.587 282.058L184.889 282.44L194.196 282.218L189.35 290.167L185.031 298.415L181.257 306.926L178.045 315.664L175.408 324.592L184.336 321.955L193.074 318.743L201.585 314.969L209.833 310.65L217.782 305.803L217.559 315.111L217.942 324.412L218.93 333.67L220.517 342.844L222.697 351.895L229.111 345.147L235.073 337.996L240.556 330.472L245.539 322.608L250 314.437L254.461 322.608L259.444 330.472L264.927 337.996L270.889 345.147L277.303 351.895L279.483 342.844L281.07 333.67L282.058 324.412L282.44 315.111L282.218 305.803L290.167 310.65L298.415 314.969L306.926 318.743L315.664 321.955L324.592 324.592L321.955 315.664L318.743 306.926L314.969 298.415L310.65 290.167L305.803 282.218L315.111 282.44L324.413 282.058L333.67 281.07L342.844 279.483L351.895 277.303L345.147 270.889L337.996 264.927L330.472 259.444L322.608 254.461L314.437 250L322.608 245.539L330.472 240.556L337.996 235.073L345.147 229.111L351.895 222.697L342.844 220.517L333.67 218.93L324.413 217.942L315.111 217.559L305.803 217.782L310.65 209.833L314.969 201.585L318.743 193.074L321.955 184.336L324.592 175.408L315.664 178.045L306.926 181.257L298.415 185.031L290.167 189.35L282.218 194.196L282.44 184.889L282.058 175.587L281.07 166.33L279.483 157.156L277.303 148.104L270.889 154.853L264.927 162.004L259.444 169.528L254.461 177.392L250 185.563L245.539 177.392L240.556 169.528L235.073 162.004L229.111 154.853L222.697 148.104L220.517 157.156L218.93 166.33L217.942 175.587L217.559 184.889L217.782 194.196L209.833 189.35L201.585 185.031L193.074 181.257L184.336 178.045L175.408 175.408L178.045 184.336L181.257 193.074L185.031 201.585L189.35 209.833L194.196 217.782L184.889 217.559L175.587 217.942L166.33 218.93L157.156 220.517L148.104 222.697ZM116.105 327.304L125.708 328.554L135.374 329.151L145.059 329.093L154.717 328.381L164.305 327.016L166.595 318.093L169.415 309.323L172.759 300.739L176.611 292.371L167.438 291.524L158.332 290.126L149.327 288.185L140.455 285.706L134.479 293.327L129.033 301.335L124.14 309.693L119.824 318.362L116.105 327.304ZM140.455 214.294L149.327 211.815L158.332 209.874L167.438 208.476L176.611 207.629L172.759 199.261L169.415 190.677L166.595 181.907L164.305 172.984L154.717 171.62L145.059 170.907L135.374 170.849L125.708 171.446L116.105 172.696L119.824 181.637L124.14 190.307L129.033 198.665L134.479 206.673L140.455 214.294ZM130.664 456.696L140.409 456.957L150.15 456.553L159.842 455.487L169.437 453.764L178.893 451.392L188.165 448.38L183.019 440.501L178.364 432.321L174.221 423.87L170.604 415.182L167.527 406.288L165.002 397.222L155.887 399.567L146.646 401.35L137.314 402.562L127.924 403.199L118.513 403.258L109.115 402.74L111.144 412.276L113.817 421.651L117.123 430.823L121.045 439.749L125.565 448.386L130.664 456.696ZM165.002 102.778L167.527 93.7121L170.604 84.8179L174.221 76.1299L178.364 67.6795L183.018 59.499L188.165 51.62L178.893 48.6085L169.437 46.2357L159.842 44.5127L150.15 43.4472L140.409 43.0435L130.664 43.3041L125.565 51.614L121.045 60.251L117.123 69.1767L113.817 78.3485L111.144 87.7239L109.115 97.2594L118.512 96.7416L127.924 96.8012L137.313 97.4383L146.646 98.6502L155.887 100.433L165.002 102.778ZM107.662 392.338L116.941 392.985L126.242 393.028L135.528 392.466L144.756 391.302L153.89 389.541L162.89 387.19L161.486 377.349L160.724 367.439L160.605 357.5L161.13 347.573L162.298 337.702L152.427 338.87L142.5 339.395L132.561 339.276L122.651 338.514L112.81 337.11L110.459 346.11L108.698 355.244L107.534 364.473L106.972 373.758L107.015 383.059L107.662 392.338ZM112.81 162.89L122.651 161.486L132.561 160.724L142.5 160.605L152.427 161.13L162.298 162.298L161.13 152.427L160.605 142.5L160.724 132.561L161.486 122.651L162.89 112.81L153.89 110.459L144.756 108.698L135.528 107.534L126.242 106.972L116.941 107.015L107.662 107.662L107.015 116.941L106.972 126.242L107.534 135.527L108.698 144.756L110.459 153.89L112.81 162.89ZM95.3917 250L103.083 255.884L111.156 261.234L119.571 266.027L128.292 270.238L137.278 273.85L143.722 267.268L150.55 261.084L157.738 255.321L165.258 250L157.738 244.679L150.55 238.917L143.722 232.733L137.278 226.15L128.292 229.762L119.571 233.974L111.156 238.766L103.083 244.116L95.3917 250ZM87.6345 243.155L95.4556 237.02L103.657 231.404L112.205 226.331L121.064 221.823L130.197 217.899L124.25 209.934L118.832 201.601L113.965 192.933L109.67 183.969L105.965 174.745L96.9954 177.209L88.2051 180.251L79.6312 183.857L71.3094 188.013L63.2746 192.701L55.5625 197.9L59.6413 206.26L64.2557 214.337L69.3846 222.097L75.0066 229.507L81.0987 236.537L87.6345 243.155ZM55.5625 302.099L63.2745 307.3L71.3093 311.987L79.6311 316.143L88.2051 319.749L96.9953 322.791L105.965 325.255L109.67 316.031L113.965 307.067L118.832 298.399L124.25 290.066L130.197 282.102L121.064 278.177L112.205 273.669L103.656 268.596L95.4555 262.98L87.6345 256.845L81.0986 263.463L75.0065 270.493L69.3845 277.904L64.2556 285.663L59.6411 293.74L55.5625 302.099ZM51.62 188.165L59.4989 183.019L67.6794 178.364L76.1299 174.221L84.8179 170.604L93.7121 167.527L102.778 165.002L100.433 155.887L98.6502 146.646L97.4383 137.314L96.8012 127.924L96.7416 118.513L97.2594 109.115L87.7239 111.144L78.3485 113.817L69.1767 117.123L60.251 121.045L51.614 125.565L43.3041 130.665L43.0435 140.41L43.4471 150.15L44.5126 159.842L46.2356 169.437L48.6084 178.893L51.62 188.165ZM43.3041 369.336L51.6141 374.435L60.2511 378.955L69.1767 382.877L78.3486 386.183L87.724 388.856L97.2595 390.885L96.7417 381.487L96.8013 372.076L97.4383 362.686L98.6503 353.354L100.433 344.113L102.778 334.998L93.7122 332.473L84.818 329.396L76.1299 325.778L67.6795 321.636L59.499 316.981L51.62 311.835L48.6084 321.107L46.2356 330.563L44.5126 340.159L43.4471 349.849L43.0435 359.59L43.3041 369.336ZM11.3283 250L15.9751 258.57L21.1951 266.804L26.9636 274.664L33.2533 282.113L40.0362 289.115L47.2807 295.64L51.5306 287.242L56.2873 279.122L61.5345 271.309L67.2502 263.832L73.4147 256.72L80.0034 250L73.4147 243.28L67.2502 236.168L61.5345 228.691L56.2873 220.878L51.5306 212.758L47.2807 204.36L40.0362 210.885L33.2533 217.888L26.9636 225.336L21.1951 233.196L15.9751 241.43L11.3283 250ZM43.1023 194.561L39.7713 185.006L37.0791 175.25L35.0359 165.339L33.6519 155.315L32.9314 145.221L32.8786 135.101L33.4935 125L41.9338 119.417L50.7241 114.403L59.8261 109.979L69.1997 106.166L78.8051 102.98L88.5995 100.434L98.5403 98.5405L100.434 88.5995L102.98 78.8051L106.166 69.1998L109.979 59.8261L114.403 50.7241L119.417 41.9339L125 33.4936L135.101 32.8787L145.221 32.9315L155.315 33.6521L165.339 35.0361L175.25 37.0793L185.005 39.7715L194.561 43.1024L201.172 35.4398L208.274 28.2311L215.837 21.5061L223.825 15.2939L232.207 9.6234L240.944 4.5184L250 0L259.056 4.5182L267.793 9.6232L276.175 15.2937L284.163 21.5059L291.726 28.2309L298.828 35.4396L305.438 43.1022L314.995 39.7713L324.749 37.0791L334.661 35.0359L344.685 33.6519L354.78 32.9313L364.899 32.8785L375 33.4934L380.583 41.9337L385.597 50.7239L390.021 59.8259L393.834 69.1996L397.02 78.8049L399.566 88.5993L401.46 98.5403L411.401 100.434L421.195 102.98L430.8 106.166L440.174 109.979L449.276 114.403L458.066 119.417L466.507 125L467.122 135.101L467.069 145.22L466.348 155.315L464.964 165.339L462.921 175.25L460.228 185.005L456.898 194.561L464.56 201.172L471.769 208.274L478.494 215.836L484.705 223.825L490.377 232.207L495.482 240.944L500 250L495.482 259.056L490.377 267.793L484.705 276.175L478.494 284.163L471.769 291.726L464.56 298.828L456.898 305.438L460.228 314.995L462.921 324.749L464.964 334.661L466.348 344.685L467.069 354.78L467.121 364.899L466.506 375L458.066 380.583L449.276 385.597L440.174 390.021L430.8 393.834L421.195 397.02L411.401 399.566L401.46 401.46L399.566 411.401L397.02 421.195L393.834 430.8L390.021 440.174L385.597 449.276L380.583 458.066L375 466.506L364.899 467.121L354.779 467.069L344.685 466.348L334.661 464.964L324.749 462.921L314.995 460.228L305.438 456.898L298.828 464.56L291.725 471.769L284.163 478.494L276.174 484.705L267.793 490.377L259.056 495.482L250 500L240.944 495.482L232.207 490.377L223.825 484.705L215.837 478.494L208.275 471.769L201.172 464.56L194.561 456.898L185.006 460.228L175.25 462.921L165.339 464.964L155.315 466.348L145.221 467.069L135.101 467.121L125 466.506L119.417 458.066L114.403 449.276L109.979 440.174L106.166 430.8L102.98 421.195L100.434 411.401L98.5404 401.46L88.5995 399.566L78.8051 397.02L69.1998 393.834L59.8261 390.021L50.7241 385.597L41.9339 380.583L33.4936 375L32.8787 364.899L32.9315 354.78L33.652 344.685L35.036 334.661L37.0792 324.749L39.7714 314.995L43.1023 305.438L35.4397 298.828L28.231 291.726L21.5061 284.163L15.2939 276.175L9.62333 267.793L4.51833 259.056L0 250L4.5182 240.944L9.6232 232.207L15.2937 223.825L21.5059 215.837L28.2309 208.275L35.4395 201.172L43.1023 194.561Z" fill="url(#paint0_radial_2001_177)"/>
</g>
<defs>
<radialGradient id="paint0_radial_2001_177" cx="0" cy="0" r="1" gradientUnits="userSpaceOnUse" gradientTransform="translate(250 250) rotate(90) scale(250)">
<stop offset="0.246302" stop-color="#CEF8DD"/>
<stop offset="0.6" stop-color="#1ED760"/>
</radialGradient>
</defs>
</svg>
