<svg width="176" height="25" viewBox="0 0 176 25" fill="none" xmlns="http://www.w3.org/2000/svg">
<path d="M23.7363 15.5822C22.9166 21.3014 18.545 25 12.295 25C5.12293 25 0 19.8973 0 12.4658C0 5.06849 5.08878 0 12.1584 0C19.0573 0 23.7021 4.62329 22.6775 10.6164H17.5887C18.2035 6.95205 16.1202 4.55479 12.2267 4.55479C7.95762 4.55479 5.08878 7.73973 5.08878 12.4658C5.08878 17.226 7.95762 20.4452 12.295 20.4452C15.7103 20.4452 17.9986 18.5274 18.5109 15.5822H23.7363Z" fill="#1ED760"/>
<path d="M28.2999 24.4863H23.2112L32.5349 0.513698H38.4775L47.8012 24.4863H42.5759L40.595 19.2123H30.2808L28.2999 24.4863ZM35.4379 5.4452L31.9201 14.7945H38.9215L35.4379 5.4452Z" fill="#1ED760"/>
<path d="M60.1774 24.4863H55.2252V4.89726H47.131V0.513698H68.2716V4.89726H60.1774V24.4863Z" fill="#1ED760"/>
<path d="M72.6787 24.4863H67.5899L76.9137 0.513698H82.8563L92.18 24.4863H86.9546L84.9737 19.2123H74.6596L72.6787 24.4863ZM79.8167 5.4452L76.2989 14.7945H83.3002L79.8167 5.4452Z" fill="#1ED760"/>
<path d="M110.635 24.4863H93.3198V0.513698H98.272V20.1027H110.635V24.4863Z" fill="#1ED760"/>
<path d="M124.278 24.4863H119.36V14.8288L109.968 0.513698H115.603L121.716 10.5479L128.103 0.513698H133.499L124.278 14.863V24.4863Z" fill="#1ED760"/>
<path d="M153.79 17.2603C153.79 22.1233 149.965 25 144.056 25C137.67 25 133.708 21.6781 134.118 16.4726H139.07C138.899 19.2466 140.675 20.6849 144.125 20.6849C147.096 20.6849 148.769 19.6575 148.769 17.7397C148.769 12.7397 134.425 17.0205 134.425 7.60274C134.425 2.87671 138.045 0 143.851 0C150.067 0 153.79 3.42466 153.175 8.49315H148.223C148.633 5.75342 146.994 4.31507 143.715 4.31507C141.017 4.31507 139.446 5.30822 139.446 7.19178C139.446 12.1918 153.79 7.97945 153.79 17.2603Z" fill="#1ED760"/>
<path d="M167.906 24.4863H162.954V4.89726H154.859V0.513698H176V4.89726H167.906V24.4863Z" fill="#1ED760"/>
</svg>
