<svg width="40" height="40" viewBox="0 0 40 40" fill="none" xmlns="http://www.w3.org/2000/svg">
<path d="M22.3379 20.2845L20.2058 22.4178V23.2C20.803 23.1487 21.3593 22.875 21.7646 22.4332C22.1699 21.9913 22.3948 21.4133 22.3947 20.8135C22.3935 20.6357 22.3744 20.4585 22.3379 20.2845Z" fill="#1ED760"/>
<path d="M21.7206 18.787L20.1997 20.3087V21.849L22.2109 19.8351C22.0826 19.4704 21.9184 19.1192 21.7206 18.787Z" fill="#1ED760"/>
<path d="M17.7812 19.8367L19.7925 21.8491V20.3373L18.2617 18.8071C18.068 19.1336 17.9071 19.4785 17.7812 19.8367Z" fill="#1ED760"/>
<path d="M19.7868 19.7612V16.8002C19.3029 17.3109 18.864 17.8624 18.4749 18.4485L19.7868 19.7612Z" fill="#1ED760"/>
<path d="M20.1997 16.8002V19.7313L21.5003 18.4357C21.1139 17.8546 20.6788 17.3075 20.1997 16.8002Z" fill="#1ED760"/>
<path d="M17.6001 20.8138C17.6 21.4135 17.8249 21.9915 18.2302 22.4334C18.6355 22.8753 19.1918 23.1489 19.789 23.2002V22.4265L17.657 20.2932C17.6209 20.4644 17.6018 20.6388 17.6001 20.8138Z" fill="#1ED760"/>
<path fill-rule="evenodd" clip-rule="evenodd" d="M36.2176 23.6512L36.7971 23.1292L37.3397 22.569L37.8429 21.9731L38.3044 21.3443L38.722 20.6856L39.0937 20L38.722 19.3144L38.3044 18.6557L37.8429 18.0269L37.3397 17.431L36.7971 16.8708L36.2176 16.3488L35.8776 17.0206L35.497 17.6702L35.0772 18.2953L34.62 18.8935L34.1268 19.4624L33.5997 20L34.1268 20.5376L34.62 21.1066L35.0772 21.7047L35.497 22.3298L35.8776 22.9794L36.2176 23.6512ZM32.2192 31.2708L32.9821 31.1085L33.7321 30.8946L34.4659 30.6302L35.1799 30.3164L35.8709 29.9548L36.5357 29.5469L36.5565 28.7672L36.5242 27.9879L36.439 27.2127L36.3011 26.4451L36.1113 25.6886L35.8704 24.9468L35.2401 25.3585L34.5856 25.7309L33.9096 26.0623L33.2146 26.3517L32.503 26.5978L31.7777 26.7999L31.9654 27.529L32.108 28.2683L32.2049 29.0149L32.2559 29.7661L32.2607 30.519L32.2192 31.2708ZM31.7777 13.2002L32.503 13.4022L33.2146 13.6483L33.9096 13.9376L34.5857 14.2691L35.2401 14.6415L35.8704 15.0532L36.1113 14.3114L36.3011 13.5549L36.439 12.7873L36.5242 12.012L36.5565 11.2328L36.5357 10.4532L35.8709 10.0452L35.1799 9.68357L34.4659 9.3698L33.7321 9.10537L32.9821 8.89149L32.2192 8.7292L32.2607 9.481L32.2559 10.2339L32.2049 10.9851L32.108 11.7317L31.9654 12.471L31.7777 13.2002ZM29.5843 22.5681L30.06 23.2052L30.4935 23.8719L30.8828 24.5654L31.2264 25.2825L31.5228 26.0204L32.2404 25.8233L32.9436 25.58L33.6295 25.2914L34.2953 24.959L34.938 24.584L35.555 24.1679L35.2287 23.4992L34.8595 22.8531L34.4492 22.2323L33.9994 21.6394L33.5121 21.077L32.9892 20.5476L32.3636 21.0384L31.7074 21.4877L31.0235 21.8935L30.3149 22.2541L29.5843 22.5681ZM29.5843 17.4319L30.3149 17.7459L31.0235 18.1065L31.7074 18.5123L32.3636 18.9616L32.9893 19.4524L33.5121 18.923L33.9994 18.3606L34.4492 17.7677L34.8596 17.147L35.2287 16.5008L35.555 15.832L34.938 15.416L34.2953 15.041L33.6295 14.7086L32.9436 14.4201L32.2404 14.1767L31.5228 13.9796L31.2264 14.7175L30.8828 15.4347L30.4935 16.1281L30.06 16.7947L29.5843 17.4319ZM26.9688 9.02477L27.0811 9.81207L27.1421 10.6049L27.1516 11.4L27.1096 12.1941L27.0162 12.9838L27.8059 12.8904L28.6 12.8484L29.3951 12.8579L30.1879 12.9189L30.9752 13.0312L31.1633 12.3112L31.3042 11.5805L31.3973 10.8422L31.4422 10.0994L31.4388 9.3553L31.387 8.61297L30.6447 8.56118L29.9006 8.55777L29.1578 8.60275L28.4195 8.69582L27.6888 8.83673L26.9688 9.02477ZM31.387 31.387L31.4388 30.6447L31.4422 29.9006L31.3973 29.1578L31.3042 28.4195L31.1633 27.6888L30.9752 26.9688L30.1879 27.0811L29.3951 27.1421L28.6 27.1516L27.8059 27.1096L27.0162 27.0162L27.1096 27.8059L27.1516 28.6L27.1421 29.3951L27.0811 30.1879L26.9688 30.9752L27.6888 31.1633L28.4195 31.3042L29.1578 31.3973L29.9006 31.4422L30.6447 31.4388L31.387 31.387ZM26.7793 20L27.381 20.4257L27.956 20.8867L28.5022 21.3814L29.0178 21.908L29.7366 21.6191L30.4342 21.2821L31.1076 20.8987L31.7533 20.4707L32.3687 20L31.7533 19.5293L31.1076 19.1013L30.4342 18.7179L29.7366 18.3809L29.0178 18.092L28.5022 18.6186L27.956 19.1133L27.381 19.5743L26.7793 20ZM26.8556 26.1613L27.6227 26.2704L28.3953 26.3275L29.17 26.3321L29.9433 26.2843L30.7116 26.1843L30.4141 25.469L30.0688 24.7754L29.6774 24.1068L29.2417 23.4661L28.7636 22.8565L28.0539 23.0548L27.3334 23.2101L26.605 23.3219L25.8711 23.3897L26.1793 24.0591L26.4467 24.7459L26.6724 25.4474L26.8556 26.1613ZM25.8711 16.6103L26.605 16.6781L27.3334 16.7899L28.0539 16.9452L28.7636 17.1435L29.2417 16.5339L29.6774 15.8932L30.0688 15.2246L30.4141 14.531L30.7116 13.8157L29.9433 13.7157L29.17 13.6679L28.3953 13.6725L27.6227 13.7296L26.8556 13.8387L26.6725 14.5526L26.4467 15.2541L26.1793 15.9409L25.8711 16.6103ZM26.7999 8.22227L27.529 8.03463L28.2683 7.89202L29.0149 7.79506L29.7661 7.7441L30.519 7.73933L31.2708 7.78075L31.1085 7.01792L30.8946 6.26788L30.6302 5.53413L30.3164 4.82008L29.9548 4.12912L29.5469 3.46433L28.7672 3.44348L27.9879 3.47578L27.2127 3.56101L26.4451 3.69885L25.6886 3.88868L24.9468 4.1296L25.3585 4.75992L25.7309 5.41436L26.0623 6.09039L26.3517 6.78544L26.5978 7.49697L26.7999 8.22227ZM29.5469 36.5357L29.9548 35.8709L30.3164 35.1799L30.6302 34.4659L30.8946 33.7321L31.1085 32.9821L31.2708 32.2192L30.519 32.2607L29.7661 32.2559L29.0149 32.2049L28.2683 32.108L27.529 31.9654L26.7998 31.7777L26.5978 32.503L26.3517 33.2146L26.0623 33.9096L25.7309 34.5857L25.3585 35.2401L24.9468 35.8704L25.6886 36.1113L26.4451 36.3011L27.2127 36.439L27.9879 36.5242L28.7672 36.5565L29.5469 36.5357ZM23.3897 14.1289L24.0591 13.8207L24.7458 13.5532L25.4474 13.3276L26.1613 13.1444L26.2704 12.3774L26.3275 11.6047L26.3321 10.8299L26.2843 10.0567L26.1843 9.28838L25.469 9.58593L24.7754 9.93124L24.1068 10.3226L23.4661 10.7583L22.8565 11.2364L23.0548 11.9461L23.2101 12.6666L23.3219 13.395L23.3897 14.1289ZM26.1843 30.7116L26.2843 29.9433L26.3321 29.17L26.3275 28.3953L26.2704 27.6227L26.1613 26.8556L25.4474 26.6724L24.7458 26.4467L24.0591 26.1793L23.3897 25.8711L23.3219 26.605L23.2101 27.3334L23.0548 28.0539L22.8565 28.7636L23.4661 29.2417L24.1068 29.6774L24.7754 30.0688L25.469 30.4141L26.1843 30.7116ZM22.5681 10.4157L23.2052 9.94003L23.8719 9.50655L24.5654 9.11723L25.2825 8.77362L26.0204 8.47723L25.8233 7.75963L25.58 7.05641L25.2914 6.37049L24.959 5.70475L24.584 5.06196L24.1679 4.44499L23.4992 4.77129L22.8531 5.14045L22.2323 5.55076L21.6394 6.00052L21.077 6.48789L20.5476 7.01076L21.0384 7.63644L21.4877 8.29252L21.8935 8.97639L22.2541 9.68513L22.5681 10.4157ZM24.1679 35.555L24.584 34.938L24.959 34.2953L25.2914 33.6295L25.58 32.9436L25.8233 32.2404L26.0204 31.5228L25.2825 31.2264L24.5654 30.8828L23.872 30.4935L23.2052 30.06L22.5681 29.5843L22.2542 30.3149L21.8935 31.0235L21.4877 31.7074L21.0384 32.3636L20.5476 32.9892L21.0771 33.5121L21.6394 33.9994L22.2323 34.4492L22.8531 34.8596L23.4992 35.2287L24.1679 35.555ZM18.092 10.9822L18.6186 11.4978L19.1133 12.044L19.5743 12.619L20 13.2207L20.4257 12.619L20.8867 12.044L21.3814 11.4978L21.908 10.9822L21.6191 10.2634L21.2821 9.56569L20.8987 8.89245L20.4707 8.24667L20 7.63133L19.5293 8.24667L19.1013 8.89245L18.7179 9.56569L18.3809 10.2634L18.092 10.9822ZM20 32.3687L20.4707 31.7533L20.8987 31.1076L21.2821 30.4342L21.6191 29.7366L21.908 29.0178L21.3814 28.5022L20.8867 27.956L20.4257 27.381L20 26.7793L19.5743 27.381L19.1133 27.956L18.6186 28.5022L18.092 29.0178L18.3809 29.7366L18.7179 30.4342L19.1013 31.1076L19.5293 31.7533L20 32.3687ZM16.3488 3.78245L17.0206 4.12245L17.6702 4.50298L18.2953 4.92276L18.8935 5.38002L19.4624 5.87318L20 6.40027L20.5376 5.87318L21.1066 5.38002L21.7047 4.92276L22.3298 4.50298L22.9794 4.12245L23.6512 3.78245L23.1292 3.2029L22.569 2.66027L21.9731 2.15709L21.3443 1.69561L20.6856 1.27801L20 0.906261L19.3144 1.27801L18.6557 1.69561L18.0269 2.15709L17.431 2.66027L16.8708 3.20289L16.3488 3.78245ZM16.3488 36.2176L16.8708 36.7971L17.431 37.3397L18.0269 37.8429L18.6557 38.3044L19.3144 38.722L20 39.0937L20.6856 38.722L21.3443 38.3044L21.9731 37.8429L22.569 37.3397L23.1292 36.7971L23.6512 36.2176L22.9794 35.8776L22.3298 35.497L21.7047 35.0772L21.1065 34.62L20.5376 34.1268L20 33.5997L19.4624 34.1268L18.8934 34.62L18.2953 35.0772L17.6702 35.497L17.0206 35.8776L16.3488 36.2176ZM17.4319 10.4157L17.7459 9.68513L18.1065 8.97639L18.5123 8.29252L18.9616 7.63644L19.4524 7.01076L18.923 6.48789L18.3606 6.00052L17.7677 5.55076L17.147 5.14045L16.5008 4.77129L15.832 4.44499L15.416 5.06196L15.041 5.70475L14.7086 6.37049L14.42 7.05641L14.1767 7.75963L13.9796 8.47723L14.7175 8.77362L15.4346 9.11723L16.1281 9.50655L16.7947 9.94003L17.4319 10.4157ZM13.9796 31.5228L14.1767 32.2404L14.42 32.9436L14.7086 33.6295L15.041 34.2953L15.416 34.938L15.832 35.555L16.5008 35.2287L17.147 34.8595L17.7677 34.4492L18.3606 33.9994L18.923 33.5121L19.4524 32.9892L18.9616 32.3636L18.5123 31.7074L18.1065 31.0235L17.7459 30.3149L17.4319 29.5842L16.7947 30.06L16.1281 30.4934L15.4346 30.8828L14.7175 31.2264L13.9796 31.5228ZM13.8387 13.1444L14.5526 13.3276L15.2542 13.5532L15.9409 13.8207L16.6103 14.1289L16.6781 13.395L16.7899 12.6666L16.9452 11.9461L17.1435 11.2364L16.5339 10.7583L15.8932 10.3226L15.2246 9.93124L14.531 9.58593L13.8157 9.28838L13.7157 10.0567L13.6679 10.8299L13.6725 11.6047L13.7296 12.3774L13.8387 13.1444ZM13.8157 30.7116L14.531 30.4141L15.2246 30.0688L15.8932 29.6774L16.5339 29.2417L17.1435 28.7636L16.9452 28.0539L16.7899 27.3334L16.6781 26.605L16.6103 25.8711L15.9409 26.1793L15.2542 26.4467L14.5526 26.6724L13.8387 26.8556L13.7296 27.6226L13.6725 28.3953L13.6679 29.17L13.7157 29.9433L13.8157 30.7116ZM11.8484 17.8158L12.3883 18.3289L12.9603 18.8058L13.5622 19.2445L14.1914 19.6431L14.8451 20L14.1914 20.3569L13.5622 20.7555L12.9603 21.1942L12.3883 21.6711L11.8484 22.1842L12.5725 22.3587L13.3064 22.4856L14.0469 22.5646L14.7911 22.5952L15.5357 22.5774L15.148 23.2134L14.8025 23.8732L14.5006 24.554L14.2436 25.2531L14.0326 25.9674L14.7469 25.7564L15.446 25.4994L16.1268 25.1975L16.7867 24.852L17.4226 24.4642L17.4047 25.2089L17.4354 25.953L17.5144 26.6936L17.6413 27.4275L17.8158 28.1516L18.3289 27.6117L18.8058 27.0397L19.2445 26.4378L19.6432 25.8086L20 25.1549L20.3569 25.8086L20.7555 26.4378L21.1942 27.0397L21.6711 27.6117L22.1842 28.1516L22.3587 27.4275L22.4856 26.6936L22.5646 25.953L22.5952 25.2089L22.5775 24.4642L23.2134 24.852L23.8732 25.1975L24.5541 25.4994L25.2531 25.7564L25.9674 25.9674L25.7564 25.2531L25.4994 24.554L25.1975 23.8732L24.852 23.2134L24.4642 22.5774L25.2089 22.5952L25.953 22.5646L26.6936 22.4856L27.4275 22.3587L28.1516 22.1842L27.6118 21.6711L27.0397 21.1942L26.4378 20.7555L25.8086 20.3569L25.1549 20L25.8086 19.6431L26.4378 19.2445L27.0397 18.8058L27.6118 18.3289L28.1516 17.8158L27.4275 17.6413L26.6936 17.5144L25.953 17.4354L25.2089 17.4047L24.4642 17.4226L24.852 16.7866L25.1975 16.1268L25.4994 15.446L25.7564 14.7469L25.9674 14.0326L25.2531 14.2436L24.5541 14.5006L23.8732 14.8025L23.2134 15.148L22.5775 15.5357L22.5952 14.7911L22.5646 14.0469L22.4856 13.3064L22.3587 12.5725L22.1842 11.8484L21.6711 12.3883L21.1942 12.9603L20.7555 13.5622L20.3569 14.1914L20 14.8451L19.6432 14.1914L19.2445 13.5622L18.8058 12.9603L18.3289 12.3883L17.8158 11.8484L17.6413 12.5725L17.5144 13.3064L17.4354 14.0469L17.4047 14.7911L17.4226 15.5357L16.7867 15.148L16.1268 14.8025L15.446 14.5006L14.7469 14.2436L14.0326 14.0326L14.2436 14.7469L14.5006 15.446L14.8025 16.1268L15.148 16.7866L15.5357 17.4226L14.7911 17.4047L14.0469 17.4354L13.3064 17.5144L12.5725 17.6413L11.8484 17.8158ZM9.28838 26.1843L10.0567 26.2843L10.8299 26.3321L11.6047 26.3275L12.3774 26.2705L13.1444 26.1613L13.3276 25.4474L13.5532 24.7459L13.8207 24.0591L14.1289 23.3897L13.395 23.3219L12.6666 23.2101L11.9461 23.0548L11.2364 22.8565L10.7583 23.4661L10.3226 24.1068L9.93123 24.7754L9.58593 25.469L9.28838 26.1843ZM11.2364 17.1435L11.9461 16.9452L12.6666 16.7899L13.395 16.6781L14.1289 16.6103L13.8207 15.9409L13.5532 15.2542L13.3276 14.5526L13.1444 13.8387L12.3774 13.7296L11.6047 13.6725L10.8299 13.6679L10.0567 13.7157L9.28838 13.8157L9.58593 14.531L9.93123 15.2246L10.3226 15.8932L10.7583 16.5339L11.2364 17.1435ZM10.4532 36.5357L11.2328 36.5565L12.012 36.5242L12.7873 36.439L13.5549 36.3011L14.3114 36.1113L15.0532 35.8704L14.6415 35.2401L14.2691 34.5856L13.9376 33.9096L13.6483 33.2146L13.4022 32.503L13.2002 31.7777L12.471 31.9654L11.7317 32.108L10.9851 32.2049L10.2339 32.2559L9.481 32.2607L8.7292 32.2192L8.8915 32.9821L9.10538 33.7321L9.36981 34.4659L9.68357 35.1799L10.0452 35.8709L10.4532 36.5357ZM13.2001 8.22227L13.4022 7.49697L13.6483 6.78544L13.9376 6.09039L14.2691 5.41436L14.6415 4.75992L15.0532 4.1296L14.3114 3.88868L13.5549 3.69885L12.7873 3.56101L12.012 3.47578L11.2328 3.44348L10.4532 3.46433L10.0452 4.12912L9.68357 4.82008L9.36981 5.53413L9.10537 6.26788L8.89149 7.01792L8.7292 7.78075L9.481 7.73933L10.2339 7.7441L10.9851 7.79506L11.7317 7.89202L12.471 8.03463L13.2001 8.22227ZM8.61296 31.387L9.35529 31.4388L10.0994 31.4422L10.8422 31.3973L11.5805 31.3042L12.3112 31.1633L13.0312 30.9752L12.9189 30.1879L12.8579 29.3951L12.8484 28.6L12.8904 27.8059L12.9838 27.0162L12.1941 27.1096L11.4 27.1516L10.6049 27.1421L9.81206 27.0811L9.02477 26.9688L8.83671 27.6888L8.69581 28.4195L8.60274 29.1578L8.55777 29.9006L8.56118 30.6447L8.61296 31.387ZM9.02477 13.0312L9.81206 12.9189L10.6049 12.8579L11.4 12.8484L12.1941 12.8904L12.9838 12.9838L12.8904 12.1941L12.8484 11.4L12.8579 10.6049L12.9189 9.81206L13.0312 9.02476L12.3112 8.83671L11.5805 8.6958L10.8422 8.60273L10.0994 8.55775L9.35529 8.56117L8.61296 8.61295L8.56117 9.35528L8.55777 10.0994L8.60274 10.8422L8.69581 11.5805L8.83671 12.3112L9.02477 13.0312ZM7.63133 20L8.24666 20.4707L8.89244 20.8987L9.56569 21.2821L10.2634 21.6191L10.9822 21.908L11.4978 21.3814L12.044 20.8867L12.619 20.4257L13.2207 20L12.619 19.5743L12.044 19.1133L11.4978 18.6186L10.9822 18.092L10.2634 18.381L9.56569 18.7179L8.89244 19.1013L8.24666 19.5293L7.63133 20ZM7.01076 19.4524L7.63645 18.9616L8.29252 18.5123L8.97639 18.1065L9.68514 17.7459L10.4157 17.4319L9.94003 16.7947L9.50655 16.1281L9.11723 15.4346L8.77362 14.7175L8.47723 13.9796L7.75963 14.1767L7.05641 14.42L6.3705 14.7086L5.70475 15.041L5.06197 15.416L4.445 15.832L4.7713 16.5008L5.14046 17.1469L5.55077 17.7677L6.00053 18.3606L6.4879 18.923L7.01076 19.4524ZM4.445 24.1679L5.06196 24.584L5.70475 24.959L6.37049 25.2914L7.05641 25.58L7.75963 25.8233L8.47723 26.0204L8.77362 25.2825L9.11722 24.5654L9.50654 23.872L9.94002 23.2052L10.4157 22.5681L9.68513 22.2542L8.97639 21.8935L8.29252 21.4877L7.63644 21.0384L7.01076 20.5476L6.48789 21.0771L6.00052 21.6394L5.55076 22.2323L5.14045 22.8531L4.77129 23.4992L4.445 24.1679ZM4.1296 15.0532L4.75992 14.6415L5.41435 14.2691L6.09039 13.9376L6.78544 13.6483L7.49697 13.4022L8.22227 13.2002L8.03463 12.471L7.89202 11.7317L7.79506 10.9851L7.7441 10.2339L7.73933 9.48101L7.78075 8.72921L7.01792 8.8915L6.26788 9.10538L5.53413 9.36981L4.82008 9.68358L4.12912 10.0452L3.46433 10.4532L3.44348 11.2328L3.47577 12.012L3.56101 12.7873L3.69885 13.5549L3.88867 14.3114L4.1296 15.0532ZM3.46433 29.5469L4.12913 29.9548L4.82009 30.3164L5.53414 30.6302L6.26789 30.8946L7.01792 31.1085L7.78076 31.2708L7.73933 30.519L7.7441 29.7661L7.79507 29.0149L7.89202 28.2683L8.03463 27.529L8.22227 26.7998L7.49698 26.5978L6.78544 26.3517L6.0904 26.0623L5.41436 25.7309L4.75992 25.3585L4.1296 24.9468L3.88867 25.6886L3.69885 26.4451L3.56101 27.2127L3.47577 27.9879L3.44348 28.7672L3.46433 29.5469ZM0.906267 20L1.27801 20.6856L1.69561 21.3443L2.15709 21.9731L2.66027 22.569L3.2029 23.1292L3.78245 23.6512L4.12245 22.9794L4.50298 22.3298L4.92276 21.7047L5.38002 21.1066L5.87318 20.5376L6.40027 20L5.87318 19.4624L5.38002 18.8935L4.92276 18.2953L4.50298 17.6702L4.12245 17.0206L3.78245 16.3488L3.2029 16.8708L2.66027 17.431L2.15709 18.0269L1.69561 18.6557L1.27801 19.3144L0.906267 20ZM3.44818 15.5649L3.18171 14.8004L2.96633 14.02L2.80287 13.2271L2.69216 12.4252L2.63451 11.6177L2.63029 10.8081L2.67948 9.99999L3.3547 9.55336L4.05793 9.15225L4.78609 8.79836L5.53598 8.49332L6.30441 8.23843L7.08796 8.0347L7.88323 7.88324L8.03469 7.08796L8.23841 6.30441L8.49331 5.53598L8.79835 4.78609L9.15224 4.05793L9.55335 3.35471L9.99998 2.67949L10.8081 2.6303L11.6176 2.63452L12.4252 2.69217L13.2271 2.80289L14.02 2.96634L14.8004 3.18172L15.5649 3.44819L16.0938 2.83518L16.662 2.25849L17.2669 1.72049L17.906 1.22351L18.5766 0.769872L19.2756 0.361472L20 0L20.7244 0.361456L21.4234 0.769856L22.094 1.2235L22.7331 1.72047L23.338 2.25847L23.9062 2.83517L24.435 3.44818L25.1996 3.1817L25.9799 2.96633L26.7729 2.80287L27.5748 2.69215L28.3824 2.63451L29.1919 2.63028L30 2.67947L30.4467 3.35469L30.8478 4.05791L31.2017 4.78608L31.5067 5.53597L31.7616 6.30439L31.9653 7.08795L32.1168 7.88322L32.9121 8.03469L33.6956 8.23841L34.464 8.4933L35.2139 8.79834L35.9421 9.15224L36.6453 9.55334L37.3205 9.99997L37.3697 10.8081L37.3655 11.6176L37.3078 12.4252L37.1971 13.2271L37.0337 14.02L36.8182 14.8004L36.5518 15.5649L37.1648 16.0938L37.7415 16.6619L38.2795 17.2669L38.7764 17.906L39.2302 18.5765L39.6386 19.2755L40 20L39.6385 20.7244L39.2301 21.4234L38.7764 22.094L38.2795 22.7331L37.7415 23.338L37.1648 23.9062L36.5518 24.435L36.8182 25.1996L37.0337 25.9799L37.1971 26.7729L37.3078 27.5748L37.3655 28.3824L37.3697 29.1919L37.3205 30L36.6453 30.4467L35.9421 30.8478L35.2139 31.2017L34.464 31.5067L33.6956 31.7616L32.9121 31.9652L32.1168 32.1168L31.9653 32.912L31.7616 33.6956L31.5067 34.464L31.2017 35.2139L30.8478 35.9421L30.4467 36.6453L30 37.3205L29.1919 37.3697L28.3824 37.3655L27.5748 37.3078L26.7729 37.1971L25.9799 37.0337L25.1996 36.8182L24.435 36.5518L23.9062 37.1648L23.338 37.7415L22.7331 38.2795L22.094 38.7764L21.4234 39.2301L20.7244 39.6385L20 40L19.2756 39.6385L18.5766 39.2301L17.906 38.7764L17.2669 38.2795L16.662 37.7415L16.0938 37.1648L15.5649 36.5518L14.8004 36.8182L14.02 37.0337L13.2271 37.1971L12.4252 37.3078L11.6176 37.3655L10.8081 37.3697L9.99998 37.3205L9.55336 36.6453L9.15225 35.9421L8.79835 35.2139L8.49331 34.464L8.23842 33.6956L8.03469 32.9121L7.88323 32.1168L7.08796 31.9653L6.30441 31.7616L5.53598 31.5067L4.78609 31.2017L4.05793 30.8478L3.35471 30.4467L2.67949 30L2.63029 29.1919L2.63452 28.3824L2.69216 27.5748L2.80288 26.7729L2.96634 25.9799L3.18171 25.1996L3.44819 24.435L2.83517 23.9062L2.25848 23.338L1.72049 22.7331L1.22351 22.094L0.769866 21.4235L0.361466 20.7245L0 20L0.361456 19.2756L0.769856 18.5766L1.2235 17.906L1.72047 17.2669L2.25847 16.662L2.83516 16.0938L3.44818 15.5649Z" fill="url(#paint0_radial_2001_39)"/>
<defs>
<radialGradient id="paint0_radial_2001_39" cx="0" cy="0" r="1" gradientUnits="userSpaceOnUse" gradientTransform="translate(20 20) rotate(90) scale(20)">
<stop offset="0.246302" stop-color="#CEF8DD"/>
<stop offset="0.6" stop-color="#1ED760"/>
</radialGradient>
</defs>
</svg>
